<?xml version="1.0" encoding="UTF-8"?>
<svg id="Layer_1" xmlns="http://www.w3.org/2000/svg" version="1.1" viewBox="0 0 256 158">
  <!-- Generator: Adobe Illustrator 29.3.1, SVG Export Plug-In . SVG Version: 2.1.0 Build 151)  -->
  <defs>
    <style>
      .st0 {
        fill: #fff;
      }
    </style>
  </defs>
  <path class="st0" d="M238.4,157.9H18.4c-10,0-18.4-8.4-18.4-18.4V18.4C0,8.4,8.4,0,18.4,0h219.2c10,0,18.4,8.4,18.4,18.4v121.1c0,10-7.7,18.4-17.6,18.4ZM18.4,12.3c-3.1,0-6.1,3.1-6.1,6.1v121.1c0,3.8,3.1,6.1,6.1,6.1h219.2c3.8,0,6.1-3.1,6.1-6.1V18.4c0-3.8-3.1-6.1-6.1-6.1.8,0-219.2,0-219.2,0ZM36.8,121.1V36.8h24.5l24.5,30.7,24.5-30.7h24.5v84.3h-24.5v-48.3l-24.5,30.7-24.5-30.7v48.3h-24.5ZM190.9,121.1l-36.8-40.6h24.5v-43.7h24.5v42.9h24.5l-36.8,41.4Z"/>
</svg>