<?xml version="1.0" encoding="UTF-8"?>
<svg id="Layer_1" xmlns="http://www.w3.org/2000/svg" version="1.1" viewBox="0 0 512 258">
  <!-- Generator: Adobe Illustrator 29.3.1, SVG Export Plug-In . SVG Version: 2.1.0 Build 151)  -->
  <defs>
    <style>
      .st0 {
        fill: #fff;
      }
    </style>
  </defs>
  <path class="st0" d="M116.4,54.1c22.3.2,38.4,6.6,48.4,19.3,10,12.7,13.3,29.9,9.9,51.8-1.3,10-4.2,19.8-8.8,29.5-4.3,9.6-10.4,18.3-18.1,26.1-9.4,9.8-19.5,16.1-30.3,18.7-10.8,2.6-21.9,4-33.4,4h-34l-10.8,53.8H0L40.5,54.1h75.9ZM452.3,54.1c22.3.2,38.4,6.6,48.4,19.3,10,12.7,13.3,29.9,9.9,51.8-1.3,10-4.2,19.8-8.8,29.5-4.3,9.6-10.4,18.3-18.1,26.1-9.4,9.8-19.5,16.1-30.3,18.7-10.8,2.6-21.9,4-33.4,4h-34l-10.8,53.8h-39.4l40.5-203.1h75.9ZM258.8,0l-11,54.1h35.1c19.3.4,33.6,4.3,43.1,11.9,9.6,7.6,12.5,21.9,8.5,43.1l-19,94.3h-39.7l18.1-90.1c1.9-9.4,1.3-16.1-1.7-20.1-3-4-9.5-5.9-19.5-5.9l-31.4-.3-23.2,116.4h-39.1L219.7,0h39.1ZM85.8,86.4c-2.3.2-4.4.3-6.5.3h-5.7s-16.9,84.7-16.9,84.7c1.1.2,2.3.3,3.4.3h4c18.1.2,33.2-1.6,45.3-5.4,12.1-4,20.2-17.8,24.4-41.4,3.4-19.8,0-31.3-10.2-34.3-10-3-22.6-4.4-37.7-4.2ZM421.7,86.4c-2.3.2-4.4.3-6.5.3h-5.7s-16.9,84.7-16.9,84.7c1.1.2,2.3.3,3.4.3h4c18.1.2,33.2-1.6,45.3-5.4,12.1-4,20.2-17.8,24.4-41.4,3.4-19.8,0-31.3-10.2-34.3-10-3-22.6-4.4-37.7-4.2Z"/>
</svg>